<svg width="42" height="42" viewBox="0 0 42 42" fill="none" xmlns="http://www.w3.org/2000/svg">
<path d="M24.5 3.5H10.5C8.575 3.5 7.0175 5.075 7.0175 7L7 35C7 36.925 8.5575 38.5 10.4825 38.5H31.5C33.425 38.5 35 36.925 35 35V14L24.5 3.5ZM26.25 21H19.25V22.75H24.5C25.4625 22.75 26.25 23.5375 26.25 24.5V29.75C26.25 30.7125 25.4625 31.5 24.5 31.5H22.75V33.25H19.25V31.5H15.75V28H22.75V26.25H17.5C16.5375 26.25 15.75 25.4625 15.75 24.5V19.25C15.75 18.2875 16.5375 17.5 17.5 17.5H19.25V15.75H22.75V17.5H26.25V21ZM22.75 14V6.125L30.625 14H22.75Z" fill="#F9F9F9"/>
</svg>
