<svg width="42" height="42" viewBox="0 0 42 42" fill="none" xmlns="http://www.w3.org/2000/svg">
<path d="M33.25 24.5V10.5C33.25 8.575 31.675 7 29.75 7H5.25C3.325 7 1.75 8.575 1.75 10.5V24.5C1.75 26.425 3.325 28 5.25 28H29.75C31.675 28 33.25 26.425 33.25 24.5ZM17.5 22.75C14.595 22.75 12.25 20.405 12.25 17.5C12.25 14.595 14.595 12.25 17.5 12.25C20.405 12.25 22.75 14.595 22.75 17.5C22.75 20.405 20.405 22.75 17.5 22.75ZM40.25 12.25V31.5C40.25 33.425 38.675 35 36.75 35H7V31.5H36.75V12.25H40.25Z" fill="#F9F9F9"/>
</svg>
