<svg width="42" height="42" viewBox="0 0 42 42" fill="none" xmlns="http://www.w3.org/2000/svg">
<path d="M36.75 31.5V33.25C36.75 35.175 35.175 36.75 33.25 36.75H8.75C6.8075 36.75 5.25 35.175 5.25 33.25V8.75C5.25 6.825 6.8075 5.25 8.75 5.25H33.25C35.175 5.25 36.75 6.825 36.75 8.75V10.5H21C19.0575 10.5 17.5 12.075 17.5 14V28C17.5 29.925 19.0575 31.5 21 31.5H36.75ZM21 28H38.5V14H21V28ZM28 23.625C26.5475 23.625 25.375 22.4525 25.375 21C25.375 19.5475 26.5475 18.375 28 18.375C29.4525 18.375 30.625 19.5475 30.625 21C30.625 22.4525 29.4525 23.625 28 23.625Z" fill="#F9F9F9"/>
</svg>
